<?xml version="1.0" encoding="UTF-8"?>
<svg width="72px" height="65px" viewBox="0 0 72 65" version="1.1" xmlns="http://www.w3.org/2000/svg" xmlns:xlink="http://www.w3.org/1999/xlink">
    <!-- Generator: Sketch 47.1 (45422) - http://www.bohemiancoding.com/sketch -->
    <title>xxxhdpi/announcemebt=</title>
    <desc>Created with Sketch.</desc>
    <defs></defs>
    <g id="Page-1" stroke="none" stroke-width="1" fill="none" fill-rule="evenodd">
        <path d="M54.3312536,0.7185 C54.5888009,0.7185 55.8740099,0.826251707 55.8740099,2.95854082 L55.8740099,52.5633831 C55.8740099,53.1287924 55.7850975,53.5972481 55.6109487,53.9535869 C55.3462793,54.493724 54.8796616,54.803424 54.3312536,54.803424 C53.7254087,54.803424 53.131281,54.4202047 52.5658717,53.6664022 C52.5049885,53.585531 46.2397667,45.4742858 30.5810773,40.6371761 C29.4027009,40.2727961 27.9883736,39.9325397 26.4339002,39.6175555 C26.1692307,39.5637945 25.6819357,39.5125607 25.445755,39.8553444 C24.8984958,40.6523394 24.0746202,41.2724287 23.0407553,41.2724287 L22.1899992,41.2724287 C21.5921955,41.2724287 21.7509512,41.8612722 21.7509512,41.8612722 L25.9314418,60.9087414 C26.1467154,61.8879264 25.937645,62.8634354 25.3579913,63.5841542 C24.7781079,64.3046432 23.870834,64.7175 22.8684444,64.7175 L17.9288672,64.7175 C15.9686592,64.7175 14.1028775,63.2179363 13.6828986,61.3027588 L9.40384625,41.8075113 C9.40384625,41.8075113 9.3006895,41.2733477 8.77203987,41.2733477 L7.57482421,41.2733477 C6.05458317,41.2733477 4.81785089,40.0359262 4.81785089,38.5163744 L4.81785089,37.5139848 C4.81785089,36.9630497 4.50562367,36.851622 4.38087062,36.8417428 C4.06312945,36.8167003 3.88277745,36.8040642 3.86577611,36.8022262 C1.8786876,36.6577149 0.263330982,34.9203622 0.263330982,32.9289085 L0.263330982,22.5920965 C0.263330982,20.6006428 1.8786876,18.8630604 3.86485712,18.718549 C3.87910148,18.7178598 4.00569251,18.7079806 4.2283181,18.6907495 C4.38087062,18.6792621 4.81785089,18.6512329 4.81785089,18.0311437 L4.81785089,17.0053198 C4.81785089,15.4850788 6.05458317,14.2483465 7.57482421,14.2483465 L23.0407553,14.2483465 C24.0799044,14.2483465 24.9846512,14.8282299 25.4540259,15.6808239 C25.520423,15.801901 25.7196143,15.9788068 26.5623292,15.8763393 C28.0869354,15.6907031 29.4360143,15.2374107 30.5810773,14.8847479 C46.2397667,10.0563686 52.5059075,1.93639296 52.5677097,1.85552174 C53.1322,1.10171929 53.7263277,0.7185 54.3312536,0.7185 Z M67.621703,13.91728 C70.4907932,18.0787015 72.006669,23.0747966 72.006669,28.3672664 C72.006669,33.7169433 70.4620747,38.7541633 67.5408317,42.9364918 C67.182655,43.4479104 66.6119615,43.7217697 66.0323078,43.7217697 C65.6688469,43.7217697 65.3017099,43.614018 64.9812118,43.3895545 C64.1483761,42.8089818 63.9457385,41.6629999 64.5272302,40.8310832 C66.9800174,37.3200777 68.3307046,32.8939868 68.3307046,28.3672664 C68.3307046,23.8233148 67.0390626,19.5488575 64.5954653,16.0038493 C64.0192578,15.1682566 64.2301663,14.0241127 65.065759,13.4479053 C65.9011219,12.8716979 67.0454955,13.0816873 67.621703,13.91728 Z M61.5818637,19.1107285 C63.4251301,21.7852223 64.3997202,24.99365 64.3997202,28.3886329 C64.3997202,31.8196862 63.4072098,35.0549944 61.5287919,37.7428136 C61.1715342,38.2544619 60.6008407,38.5280915 60.020268,38.5280915 C59.6568071,38.5280915 59.2896701,38.4212588 58.969172,38.197025 C58.1372553,37.6153036 57.9336987,36.4693217 58.5151904,35.637405 C59.9393968,33.5993125 60.7237557,31.0245291 60.7237557,28.3877139 C60.7237557,25.7421683 59.9736292,23.2553783 58.554707,21.1975275 C57.9784996,20.3619349 58.189408,19.2166422 59.0250007,18.6406645 C59.8603636,18.0644571 61.0047373,18.2744466 61.5818637,19.1107285 Z" id="announcemebt=" fill="#FFFFFF"></path>
    </g>
</svg>