<?xml version="1.0" encoding="UTF-8"?>
<svg width="86px" height="71px" viewBox="0 0 86 71" version="1.1" xmlns="http://www.w3.org/2000/svg" xmlns:xlink="http://www.w3.org/1999/xlink">
    <!-- Generator: Sketch 47.1 (45422) - http://www.bohemiancoding.com/sketch -->
    <title>mdpi/news</title>
    <desc>Created with Sketch.</desc>
    <defs></defs>
    <g id="Page-1" stroke="none" stroke-width="1" fill="none" fill-rule="evenodd">
        <path d="M74.9471538,11.433 L74.9471538,0.672727273 L0,0.672727273 L0,59.8794545 C0,59.8794545 0,70.6397273 10.7043462,70.6397273 L77.6274231,70.6397273 C77.6274231,70.6397273 85.6682308,70.4681818 85.6682308,59.8794545 L85.6682308,11.433 L74.9471538,11.433 Z M10.7043462,65.2511818 C5.36053846,65.2511818 5.36053846,59.8794545 5.36053846,59.8794545 L5.36053846,6.06127273 L69.6033462,6.06127273 L69.6033462,59.8794545 C69.6033462,62.3483636 70.3595769,64.0705455 71.4069231,65.2511818 L10.7043462,65.2511818 Z M11,22 L65,22 L65,17 L11,17 L11,22 Z M40,54 L59,54 L59,49 L40,49 L40,54 Z M40,43 L64,43 L64,38 L40,38 L40,43 Z M40,33 L64,33 L64,28 L40,28 L40,33 Z M11,55 L35,55 L35,28 L11,28 L11,55 Z" id="news" fill="#FFFFFF"></path>
    </g>
</svg>