<svg xmlns="http://www.w3.org/2000/svg" xmlns:xlink="http://www.w3.org/1999/xlink" width="80" height="72" viewBox="0 0 80 72">
  <defs>
    <clipPath id="clip-Artboard_6">
      <rect width="80" height="72"/>
    </clipPath>
  </defs>
  <g id="Artboard_6" data-name="Artboard – 6" clip-path="url(#clip-Artboard_6)">
    <g id="_24-hours-support" data-name="24-hours-support" transform="translate(4.401 -22.815)">
      <path id="Path_7869" data-name="Path 7869" d="M46.629,142.315a3.968,3.968,0,0,0-4.349-.859L37.152,143.6a1.058,1.058,0,0,0-.347.23L34.636,146a1.689,1.689,0,0,1-2.386,0l-13.37-13.368a1.69,1.69,0,0,1,0-2.386l2.168-2.168a1.056,1.056,0,0,0,.236-.362l2.1-5.22a3.976,3.976,0,0,0-.879-4.3l-4.623-4.623a3.967,3.967,0,0,0-4.349-.859L8.41,114.848l-.01,0,0,0h0a1.051,1.051,0,0,0-.34.227L5.889,117.25A20.022,20.022,0,0,0,4.4,143.96a1.055,1.055,0,0,0,1.647-1.32,17.914,17.914,0,0,1,1.33-23.9L8.8,117.321l10.007,10.007-1.422,1.422a3.8,3.8,0,0,0,0,5.371l13.37,13.368a3.8,3.8,0,0,0,5.371,0l1.422-1.422,10.007,10.007L46.135,157.5a17.829,17.829,0,0,1-12.691,5.256h0A17.833,17.833,0,0,1,20.751,157.5L8.9,145.648a1.056,1.056,0,1,0-1.52,1.465l11.876,11.875a20.083,20.083,0,0,0,28.37,0l2.168-2.168a1.056,1.056,0,0,0,.234-.358l2.1-5.224a3.976,3.976,0,0,0-.879-4.3ZM10.663,116.2l3.683-1.538a1.864,1.864,0,0,1,2.043.4l4.623,4.623a1.868,1.868,0,0,1,.413,2.02l-1.507,3.747Zm39.509,34.256L48.666,154.2l-9.256-9.256,3.683-1.538a1.865,1.865,0,0,1,2.043.4l4.623,4.623A1.868,1.868,0,0,1,50.173,150.451Z" transform="translate(0 -73.541)" fill="#7c7c7c"/>
      <path id="Path_7870" data-name="Path 7870" d="M403.6,79.256a1.056,1.056,0,0,0-1.185.476c-1.4,2.335-3.682,6.333-6.268,10.968a1.055,1.055,0,0,0,.922,1.57h6.218a1.055,1.055,0,0,0,1.055-1.049c.02-3.4.042-8.062.034-10.949A1.055,1.055,0,0,0,403.6,79.256Zm-1.363,10.9h-3.369c1.248-2.227,2.4-4.264,3.4-5.985C402.258,86.142,402.248,88.279,402.238,90.158Z" transform="translate(-340.287 -45.029)" fill="#7c7c7c"/>
      <path id="Path_7871" data-name="Path 7871" d="M369.811,48.157c.01-1.781.017-3.548.022-5.166a1.055,1.055,0,0,0-1.052-1.058h0a1.055,1.055,0,0,0-1.055,1.052c-.006,1.936-.015,4.084-.028,6.214a1.056,1.056,0,0,0,1.055,1.062h.83a1.331,1.331,0,0,1,0,2.662h-.863a1.055,1.055,0,0,0-1.055,1.048c-.017,2.3-.032,4.164-.041,5.094a1.334,1.334,0,0,1-1.33,1.319h-.012a1.33,1.33,0,0,1-1.319-1.342c.013-1.543.027-3.264.039-5.056a1.056,1.056,0,0,0-1.055-1.063H353.7a1.33,1.33,0,0,1-1.165-1.974c3.9-7.075,8.843-15.808,9.926-17.136,1.275-1.565,2.548-1.464,3.193-1.264a3.145,3.145,0,0,1,2.023,2.867c.018.207.04.956.045,3.356a1.055,1.055,0,0,0,1.055,1.053h0a1.055,1.055,0,0,0,1.053-1.058c-.006-2.681-.033-3.3-.053-3.528a5.234,5.234,0,0,0-3.5-4.706,4.609,4.609,0,0,0-2.315-.1,5.534,5.534,0,0,0-3.138,2.048c-1.472,1.806-8.132,13.813-10.137,17.449a3.441,3.441,0,0,0,3.013,5.1h9.177c-.011,1.407-.022,2.756-.032,3.989a3.44,3.44,0,0,0,3.421,3.472h.021a3.451,3.451,0,0,0,3.441-3.411c.007-.785.019-2.237.033-4.054a3.442,3.442,0,0,0,.046-6.872Z" transform="translate(-300.976 -3.02)" fill="#7c7c7c"/>
      <path id="Path_7872" data-name="Path 7872" d="M214.121,38.849a3.442,3.442,0,0,0,4.041-2.714,3.028,3.028,0,0,1,5.992.412l-.067.529a13.554,13.554,0,0,1-2.118,4.142c-4,5.711-6.382,8.834-7.666,10.515-.561.734-.931,1.22-1.194,1.6a3.985,3.985,0,0,0-.714,3.522A3.55,3.55,0,0,0,214.7,59.2c.469.157.84.28,5.843.28,2.067,0,4.74-.021,8.172-.064A3.442,3.442,0,0,0,231.07,53.5a3.4,3.4,0,0,0-2.441-.972c-2.2.028-4.417.046-6.351.054,1.652-2.231,3.408-4.676,5.33-7.421a19.776,19.776,0,0,0,3.221-6.684,3.446,3.446,0,0,0,.061-.341l.125-.978a3.451,3.451,0,0,0,.028-.436,9.911,9.911,0,0,0-19.635-1.917,3.442,3.442,0,0,0,2.714,4.041Zm-.643-3.634a7.8,7.8,0,0,1,15.453,1.51,1.328,1.328,0,0,1-.011.169l-.125.978c-.006.045-.014.089-.024.132a17.724,17.724,0,0,1-2.894,5.951c-2.405,3.437-4.548,6.4-6.552,9.055a1.055,1.055,0,0,0,.842,1.691c2.332,0,5.423-.019,8.49-.058A1.331,1.331,0,0,1,230,55.957a1.333,1.333,0,0,1-1.314,1.348c-3.423.043-6.087.064-8.145.064-4.1,0-4.907-.083-5.175-.172a1.445,1.445,0,0,1-.957-.959,1.926,1.926,0,0,1,.436-1.707c.233-.339.59-.807,1.135-1.52,1.291-1.69,3.693-4.835,7.715-10.582a15.417,15.417,0,0,0,2.452-4.9,1.061,1.061,0,0,0,.023-.121l.087-.682a1.062,1.062,0,0,0,.008-.168,5.139,5.139,0,0,0-10.176-.828,1.331,1.331,0,0,1-2.612-.513Z" transform="translate(-181.602 0)" fill="#7c7c7c"/>
    </g>
  </g>
</svg>
