<svg xmlns="http://www.w3.org/2000/svg" xmlns:xlink="http://www.w3.org/1999/xlink" width="90" height="87" viewBox="0 0 90 87">
  <defs>
    <clipPath id="clip-Artboard_7">
      <rect width="90" height="87"/>
    </clipPath>
  </defs>
  <g id="Artboard_7" data-name="Artboard – 7" clip-path="url(#clip-Artboard_7)">
    <g id="outline" transform="translate(6.597 3)">
      <path id="Path_7857" data-name="Path 7857" d="M23,12h2.59v2.59H23Z" transform="translate(4.666 2.949)" fill="#7c7c7c"/>
      <path id="Path_7858" data-name="Path 7858" d="M27,12h2.59v2.59H27Z" transform="translate(5.845 2.949)" fill="#7c7c7c"/>
      <path id="Path_7859" data-name="Path 7859" d="M31,12h2.59v2.59H31Z" transform="translate(7.024 2.949)" fill="#7c7c7c"/>
      <path id="Path_7860" data-name="Path 7860" d="M37,6h2.59V8.59H37Z" transform="translate(8.794 1.179)" fill="#7c7c7c"/>
      <path id="Path_7861" data-name="Path 7861" d="M70.3,78.892a1.3,1.3,0,0,0-.281-1.411l-7.51-7.51-2.441-9.765L61.324,51.4a1.317,1.317,0,0,0-.008-.416l-2.59-14.207a4.1,4.1,0,0,0-3.869-3.7,3.834,3.834,0,0,0-1.288.237V8.474A6.482,6.482,0,0,0,47.095,2h-25.9a6.482,6.482,0,0,0-6.474,6.474V24.36a4.549,4.549,0,0,0-2.884.058,5.023,5.023,0,0,0-3.26,3.67A4.954,4.954,0,0,0,9.9,32.68l3.828,3.828a4.84,4.84,0,0,0-2.381,5.936,4.942,4.942,0,0,0-2.711,8.382l2.118,2.118a4.9,4.9,0,0,0-2.121,1.23,4.962,4.962,0,0,0,0,7.01l5.179,5.179a4.952,4.952,0,0,0,.906.7v.972a6.482,6.482,0,0,0,6.474,6.474H33.6l4.8,4.8a1.3,1.3,0,0,0,.918.379H69.1a1.3,1.3,0,0,0,1.2-.8ZM27.666,4.59H40.614v2.59H27.666ZM17.307,26.6V8.474A3.885,3.885,0,0,1,21.191,4.59h3.885V8.474a1.3,1.3,0,0,0,1.295,1.295H41.909A1.3,1.3,0,0,0,43.2,8.474V4.59h3.885a3.885,3.885,0,0,1,3.885,3.885V61.563H22.078a4.906,4.906,0,0,0-1.256-2.21L18.7,57.227A4.861,4.861,0,0,0,22.279,52.5,4.921,4.921,0,0,0,22,50.934a4.834,4.834,0,0,0,3.437-2.319H31.55a1.3,1.3,0,0,0,1.295-1.295V39.551a1.3,1.3,0,0,0-1.295-1.295H23.781a1.3,1.3,0,0,0-1.295,1.295v.777l-2.965-2.964a4.992,4.992,0,0,0-2.214-1.253ZM25.076,43V40.846h5.179v5.179H26.161A4.933,4.933,0,0,0,25.076,43ZM11.727,30.849a2.379,2.379,0,0,1-.625-2.2,2.443,2.443,0,0,1,1.625-1.8,1.837,1.837,0,0,1,.629-.109,2.373,2.373,0,0,1,1.361.452v6.644ZM14.351,39.2a2.476,2.476,0,0,1,1.683-.682A2.363,2.363,0,0,1,17.7,39.2l5.172,5.17a2.4,2.4,0,0,1,.7,1.683,2.367,2.367,0,0,1-.159.839,2.24,2.24,0,0,1-.536.834,2.376,2.376,0,0,1-3.139.2l-5.389-5.378a2.35,2.35,0,0,1-.7-1.673,2.389,2.389,0,0,1,.69-1.674Zm-3.885,9.8a2.368,2.368,0,0,1,3.152-3.526l5.372,5.357a2.368,2.368,0,1,1-3.349,3.349Zm5.179,15.538-5.179-5.179A2.368,2.368,0,0,1,13.811,56l5.179,5.179a2.368,2.368,0,1,1-3.349,3.349Zm5.546,7.39a3.885,3.885,0,0,1-3.885-3.885v-.227h.01a4.884,4.884,0,0,0,4.761-3.658H50.973v3.885a3.885,3.885,0,0,1-3.885,3.885ZM39.855,77.1l-2.59-2.59h9.823a6.482,6.482,0,0,0,6.474-6.474V36.953a1.3,1.3,0,0,1,1.295-1.287c.676,0,1.2.759,1.316,1.527L58.725,51.23,57.46,60.085a1.312,1.312,0,0,0,.026.5l2.59,10.359a1.3,1.3,0,0,0,.341.6L65.975,77.1Z" fill="#7c7c7c"/>
      <path id="Path_7862" data-name="Path 7862" d="M26,52h5.179v2.59H26Z" transform="translate(5.55 14.743)" fill="#7c7c7c"/>
      <path id="Path_7863" data-name="Path 7863" d="M20.295,30.359h7.769a1.3,1.3,0,0,0,1.295-1.295V21.295A1.3,1.3,0,0,0,28.064,20H20.295A1.3,1.3,0,0,0,19,21.295v7.769A1.3,1.3,0,0,0,20.295,30.359ZM21.59,22.59h5.179v5.179H21.59Z" transform="translate(3.486 5.307)" fill="#7c7c7c"/>
      <path id="Path_7864" data-name="Path 7864" d="M29,29.064a1.3,1.3,0,0,0,1.295,1.295h7.769a1.3,1.3,0,0,0,1.295-1.295V21.295A1.3,1.3,0,0,0,38.064,20H30.295A1.3,1.3,0,0,0,29,21.295Zm2.59-6.474h5.179v5.179H31.59Z" transform="translate(6.435 5.307)" fill="#7c7c7c"/>
      <path id="Path_7865" data-name="Path 7865" d="M38.064,30H30.295A1.3,1.3,0,0,0,29,31.295v7.769a1.3,1.3,0,0,0,1.295,1.295h7.769a1.3,1.3,0,0,0,1.295-1.295V31.295A1.3,1.3,0,0,0,38.064,30Zm-1.295,7.769H31.59V32.59h5.179Z" transform="translate(6.435 8.256)" fill="#7c7c7c"/>
      <path id="Path_7866" data-name="Path 7866" d="M23,44h2.59v2.59H23Z" transform="translate(4.666 12.384)" fill="#7c7c7c"/>
      <path id="Path_7867" data-name="Path 7867" d="M27,44h2.59v2.59H27Z" transform="translate(5.845 12.384)" fill="#7c7c7c"/>
      <path id="Path_7868" data-name="Path 7868" d="M31,44h2.59v2.59H31Z" transform="translate(7.024 12.384)" fill="#7c7c7c"/>
    </g>
  </g>
</svg>
