<svg xmlns="http://www.w3.org/2000/svg" xmlns:xlink="http://www.w3.org/1999/xlink" width="80" height="72" viewBox="0 0 80 72">
  <defs>
    <clipPath id="clip-Artboard_5">
      <rect width="80" height="72"/>
    </clipPath>
  </defs>
  <g id="Artboard_5" data-name="Artboard – 5" clip-path="url(#clip-Artboard_5)">
    <g id="Group_4800" data-name="Group 4800" transform="translate(9.77 6)">
      <g id="Group_4801" data-name="Group 4801">
        <path id="Path_7005" data-name="Path 7005" d="M-358.525,363.536v42.945c-.7,2.632-2.4,3.242-4.359,3.237-15.594-.041-31.189-.064-46.783.016a4.05,4.05,0,0,1-4.368-4.741c.027-.308,0-.621,0-.957-.645,0-1.2.02-1.75,0a3.334,3.334,0,0,1-2.84-1.7,10.662,10.662,0,0,1-.629-1.509V357.879a3.833,3.833,0,0,1,4.358-3.222c.663.05,1.331.008,2.048.008,0-.556-.006-1.044,0-1.532a3.966,3.966,0,0,1,3.81-4.124,3.968,3.968,0,0,1,3.776,4.1c.009.506,0,1.013,0,1.51h9.965c0-.541-.007-1.033,0-1.524a3.966,3.966,0,0,1,3.789-4.083,3.963,3.963,0,0,1,3.8,4.074c.01.508,0,1.017,0,1.541h9.965c0-.508,0-.977,0-1.445a3.976,3.976,0,0,1,3.768-4.17,3.97,3.97,0,0,1,3.82,4.179c.005.483,0,.966,0,1.477.679,0,1.274.048,1.861-.008,3.065-.292,4.822,1.742,4.547,4.9-.021.244,0,.492,0,.765.645,0,1.2-.019,1.749,0a3.305,3.305,0,0,1,2.805,1.646A10.906,10.906,0,0,1-358.525,363.536Zm-5.219-.639v.83q0,18.03,0,36.06c0,2.661-1.455,4.25-3.893,4.25q-9.042,0-18.084,0c-.158,0-.317.007-.474-.006a1.25,1.25,0,0,1-1.146-1.3,1.243,1.243,0,0,1,1.124-1.257c.2-.018.395-.008.593-.008h17.906c1.224,0,1.6-.4,1.6-1.718q0-13.177,0-26.354v-.685h-50.763v.679q0,13.177,0,26.354c0,1.32.374,1.724,1.6,1.724h17.965a4.9,4.9,0,0,1,.592.011,1.252,1.252,0,0,1,1.071,1.247,1.256,1.256,0,0,1-1.082,1.3,5.068,5.068,0,0,1-.592.011h-14.332c0,.482,0,.9,0,1.327,0,1.36.368,1.758,1.623,1.758h47.493c1.294,0,1.646-.385,1.646-1.8q0-20.312,0-40.624c0-.171.006-.343,0-.514a1.231,1.231,0,0,0-1.16-1.284C-362.591,362.875-363.124,362.9-363.743,362.9Zm-2.377,7.167c0-3.9.007-7.753-.007-11.606a1.137,1.137,0,0,0-.98-1.188c-1-.052-2-.015-3.04-.015,0,.529,0,1,0,1.465a3.976,3.976,0,0,1-3.768,4.172,3.974,3.974,0,0,1-3.821-4.178c0-.483,0-.966,0-1.445H-387.7c0,.539.009,1.049,0,1.557a3.966,3.966,0,0,1-3.8,4.066,3.97,3.97,0,0,1-3.78-4.092c-.008-.507,0-1.013,0-1.516h-9.965c0,.538.008,1.029,0,1.52a3.968,3.968,0,0,1-3.785,4.088,3.965,3.965,0,0,1-3.8-4.069c-.009-.508,0-1.017,0-1.586-.883,0-1.708,0-2.533,0-1.089,0-1.5.447-1.5,1.633q0,5.3,0,10.606v.588Zm-44.352-14.179c0,.919-.008,1.838,0,2.757a1.51,1.51,0,0,0,1.435,1.675,1.5,1.5,0,0,0,1.4-1.642q.019-2.725,0-5.451a1.5,1.5,0,0,0-1.4-1.641,1.509,1.509,0,0,0-1.436,1.673C-410.481,354.132-410.473,355.008-410.473,355.885Zm17.554.056c0,.919-.012,1.838,0,2.757a1.5,1.5,0,0,0,1.426,1.619,1.5,1.5,0,0,0,1.412-1.633q.02-2.725,0-5.451a1.5,1.5,0,0,0-1.4-1.65,1.506,1.506,0,0,0-1.444,1.664C-392.928,354.145-392.92,355.043-392.919,355.94Zm20.4.014c0-.919.012-1.839,0-2.757a1.492,1.492,0,0,0-1.429-1.614,1.5,1.5,0,0,0-1.409,1.636q-.018,2.725,0,5.451a1.5,1.5,0,0,0,1.4,1.647,1.509,1.509,0,0,0,1.44-1.67C-372.511,357.75-372.52,356.852-372.521,355.954Z" transform="translate(419.25 -349.009)" fill="#7c7c7c"/>
        <path id="Path_7006" data-name="Path 7006" d="M-287.084,534.1a6.342,6.342,0,0,1-.677-.275c-1.311-.679-2.627-1.351-3.918-2.068a.946.946,0,0,0-1.04.015c-1.316.715-2.654,1.389-3.975,2.1a1.356,1.356,0,0,1-1.547.006,1.336,1.336,0,0,1-.471-1.468c.282-1.492.544-2.99.761-4.493a1.178,1.178,0,0,0-.282-.869c-1.059-1.091-2.159-2.142-3.253-3.2a1.329,1.329,0,0,1-.493-1.461,1.338,1.338,0,0,1,1.246-.907c1.526-.209,3.052-.424,4.57-.685a1.09,1.09,0,0,0,.679-.509c.7-1.345,1.367-2.712,2.029-4.079a1.358,1.358,0,0,1,1.233-.932,1.358,1.358,0,0,1,1.293.938c.642,1.33,1.322,2.642,1.944,3.98a1.006,1.006,0,0,0,.891.644c1.506.2,3.006.445,4.511.654a1.293,1.293,0,0,1,1.177.9,1.3,1.3,0,0,1-.456,1.415c-1.091,1.06-2.165,2.137-3.276,3.176a.966.966,0,0,0-.308,1.006c.281,1.514.537,3.033.795,4.552A1.287,1.287,0,0,1-287.084,534.1Zm-1.494-3.569c-.156-.908-.229-1.686-.432-2.429a2.353,2.353,0,0,1,.879-2.729,17.953,17.953,0,0,0,1.676-1.739c-.932-.136-1.821-.313-2.717-.384a1.95,1.95,0,0,1-1.792-1.346c-.342-.82-.783-1.6-1.233-2.5-.511,1.033-.966,1.932-1.4,2.841a1.55,1.55,0,0,1-1.31.945c-1,.121-1.989.293-2.981.443.693.735,1.327,1.461,2.021,2.125a1.772,1.772,0,0,1,.568,1.816c-.2.932-.323,1.882-.5,2.957.973-.511,1.826-.922,2.641-1.4a1.787,1.787,0,0,1,1.961.008C-290.386,529.615-289.54,530.028-288.578,530.534Z" transform="translate(320.785 -487.472)" fill="#7c7c7c"/>
        <path id="Path_7007" data-name="Path 7007" d="M-251.226,656.048a1.078,1.078,0,0,1,1.079-1.021,1.076,1.076,0,0,1,1.048,1.105,1.079,1.079,0,0,1-1.079,1.022A1.077,1.077,0,0,1-251.226,656.048Z" transform="translate(278.5 -602.426)" fill="#7c7c7c"/>
      </g>
    </g>
  </g>
</svg>
