<svg xmlns="http://www.w3.org/2000/svg" xmlns:xlink="http://www.w3.org/1999/xlink" width="80" height="72" viewBox="0 0 80 72">
  <defs>
    <clipPath id="clip-Artboard_2">
      <rect width="80" height="72"/>
    </clipPath>
  </defs>
  <g id="Artboard_2" data-name="Artboard – 2" clip-path="url(#clip-Artboard_2)">
    <g id="Group_5336" data-name="Group 5336" transform="translate(8.363 6)" opacity="0.701">
      <g id="Group_5335" data-name="Group 5335" transform="translate(0)">
        <path id="Path_7655" data-name="Path 7655" d="M70.461,33.36a4.676,4.676,0,0,0-1.816.364,3.865,3.865,0,0,0-2.674-2.438V5.632A5.91,5.91,0,0,0,59.83,0H17.142A5.91,5.91,0,0,0,11,5.632V8.809a2.838,2.838,0,0,0,2.949,2.706h1.266V56.347a2.838,2.838,0,0,0,2.949,2.706H52.545a14.194,14.194,0,0,0,7.29,2.064,13.863,13.863,0,0,0,4.22-.664,14.857,14.857,0,0,0,7.593-5.664,17.393,17.393,0,0,0,3.007-10.144V37.36A3.976,3.976,0,0,0,70.461,33.36ZM17.813,56.347V11.515h11.9a1.25,1.25,0,0,0,1.3-1.194,1.25,1.25,0,0,0-1.3-1.194H13.949a.34.34,0,0,1-.351-.319V5.632a3.408,3.408,0,0,1,3.543-3.245H54.813a5.29,5.29,0,0,0-1.124,3.245V8.809a.34.34,0,0,1-.351.319H41.409a1.25,1.25,0,0,0-1.3,1.194,1.25,1.25,0,0,0,1.3,1.194H53.337a2.838,2.838,0,0,0,2.949-2.706V5.632a3.557,3.557,0,0,1,7.086,0V31.285a4.5,4.5,0,0,0-.515.18,4.083,4.083,0,0,0-3.973-2.622,4.7,4.7,0,0,0-1.595.277V22.4a4.2,4.2,0,0,0-8.385,0V39.647c0,.543.011,1.039.02,1.476,0,.047,0,.095,0,.143l-3.02-2.975a4.651,4.651,0,0,0-6.824,6.318L48.1,55.243a19.357,19.357,0,0,0,1.335,1.422H18.164A.34.34,0,0,1,17.813,56.347Zm54.244-11.7c.041,6.5-3.434,11.818-8.854,13.546-4.585,1.461-9.465-.191-13.053-4.421L41.134,43.142a2.345,2.345,0,0,1,.276-3.467,1.933,1.933,0,0,1,1.165-.431,2.033,2.033,0,0,1,1.434.675l3.163,3.116c.893.879,2,1.973,3.235,1.514a1.862,1.862,0,0,0,1.1-1.719,17.249,17.249,0,0,0,.013-1.756c-.009-.426-.02-.909-.02-1.428V22.4a1.595,1.595,0,1,1,3.189,0V39.488a1.3,1.3,0,0,0,2.6,0V32.844a1.507,1.507,0,0,1,1.595-1.613,1.7,1.7,0,0,1,1.1.379,1.547,1.547,0,0,1,.494,1.234v6.645a1.3,1.3,0,0,0,2.6,0V35.1a1.507,1.507,0,0,1,1.594-1.614,1.7,1.7,0,0,1,1.1.379,1.549,1.549,0,0,1,.495,1.235v4.385a1.3,1.3,0,0,0,2.6,0V37.36a1.508,1.508,0,0,1,1.6-1.613,1.7,1.7,0,0,1,1.1.379,1.546,1.546,0,0,1,.494,1.234v7.291Z" transform="translate(-11 0)" fill="#51585d"/>
        <g id="instructions" transform="translate(12.832 5.41)">
          <path id="Path_7645" data-name="Path 7645" d="M104.455,140.757h4.68a2.23,2.23,0,0,0,2.318-2.124v-4.29a2.23,2.23,0,0,0-2.318-2.124h-4.68a2.228,2.228,0,0,0-2.314,2.124v4.29A2.228,2.228,0,0,0,104.455,140.757Zm.089-6.33h4.506v4.122h-4.506Z" transform="translate(-102.141 -126.064)" fill="#51585d"/>
          <path id="Path_7647" data-name="Path 7647" d="M201.721,133.323a1.156,1.156,0,0,0,1.2,1.1h9.616a1.108,1.108,0,1,0,0-2.208h-9.616A1.156,1.156,0,0,0,201.721,133.323Z" transform="translate(-189.756 -126.064)" fill="#51585d"/>
          <path id="Path_7648" data-name="Path 7648" d="M210.5,189.557h-7.575a1.108,1.108,0,1,0,0,2.208H210.5a1.108,1.108,0,1,0,0-2.208Z" transform="translate(-189.756 -177.072)" fill="#51585d"/>
          <path id="Path_7649" data-name="Path 7649" d="M103.343,249.13h18.352a1.108,1.108,0,1,0,0-2.208H103.343a1.108,1.108,0,1,0,0,2.208Z" transform="translate(-102.141 -228.103)" fill="#51585d"/>
          <path id="Path_7650" data-name="Path 7650" d="M103.343,306.468h9.9a1.108,1.108,0,1,0,0-2.208h-9.9a1.108,1.108,0,1,0,0,2.208Z" transform="translate(-102.141 -279.111)" fill="#51585d"/>
          <path id="Path_7651" data-name="Path 7651" d="M103.343,363.834h8.719a1.108,1.108,0,1,0,0-2.208h-8.719a1.108,1.108,0,1,0,0,2.208Z" transform="translate(-102.141 -330.143)" fill="#51585d"/>
          <path id="Path_7652" data-name="Path 7652" d="M116.134,418.964H103.343a1.108,1.108,0,1,0,0,2.208h12.791a1.108,1.108,0,1,0,0-2.208Z" transform="translate(-102.141 -381.151)" fill="#51585d"/>
          <path id="Path_7653" data-name="Path 7653" d="M191.274,78.677h.007a1.209,1.209,0,1,0-.007,0Z" transform="translate(-179.507 -76.469)" fill="#51585d"/>
        </g>
      </g>
    </g>
  </g>
</svg>
