<svg xmlns="http://www.w3.org/2000/svg" xmlns:xlink="http://www.w3.org/1999/xlink" width="80" height="72" viewBox="0 0 80 72">
  <defs>
    <clipPath id="clip-Artboard_4">
      <rect width="80" height="72"/>
    </clipPath>
  </defs>
  <g id="Artboard_4" data-name="Artboard – 4" clip-path="url(#clip-Artboard_4)">
    <g id="Group_5336" data-name="Group 5336" transform="translate(-17.119 -10.517)">
      <g id="Group_4798" data-name="Group 4798" transform="translate(28.675 18.516)">
        <g id="Group_4799" data-name="Group 4799" transform="translate(0)">
          <path id="Path_7003" data-name="Path 7003" d="M-376.427,307.14a5.615,5.615,0,0,1,.238-8.232,5.559,5.559,0,0,1,7.545.291,5.58,5.58,0,0,1-.109,7.951,5.924,5.924,0,0,1,2.828,2.43c.536-.573,1.053-1.111,1.548-1.668a.718.718,0,0,0,.121-.42c.137-3.209.792-4.307,3.562-5.911a5.571,5.571,0,0,1-1.652-4.767,5.376,5.376,0,0,1,2.025-3.578,5.522,5.522,0,0,1,7.365.391,5.6,5.6,0,0,1-.064,7.968c.12.067.23.134.345.193a5.428,5.428,0,0,1,3.191,5.084,1.8,1.8,0,0,0,.627,1.557,9.949,9.949,0,0,1,1.038,1.168,5.836,5.836,0,0,1,2.874-2.435,5.775,5.775,0,0,1-1.658-3.107,5.527,5.527,0,0,1,5.833-6.472.888.888,0,0,0,.828-.345,4.572,4.572,0,0,1,5.22-1.158,4.659,4.659,0,0,1,2.8,4.575,4.559,4.559,0,0,1-3.372,4.088,1.248,1.248,0,0,0-.889.755,16.558,16.558,0,0,1-1.075,1.68l.386.205a5.537,5.537,0,0,1,3.12,4.969,1.478,1.478,0,0,0,.221.791,7.615,7.615,0,0,1-.612,10.071,6.493,6.493,0,0,0-1.05,1.543,8.783,8.783,0,0,1-1.511,2.005c-.366.37-.156.645-.116.978a.573.573,0,0,0,.527.568c.945.173,1.9.334,2.82.591a7.115,7.115,0,0,1,5.228,6.55c.077,4.6.02,9.208.02,13.858H-385.5v-.591q0-6.271,0-12.543a7.307,7.307,0,0,1,6.234-7.513c.623-.118,1.242-.269,1.869-.356.414-.057.468-.348.521-.647s.259-.574-.124-.868a5.361,5.361,0,0,1-1.774-2.58,1.469,1.469,0,0,0-.379-.555,8.156,8.156,0,0,1-2.654-6.293c.016-1.329,0-2.659.005-3.988a2.762,2.762,0,0,1,1.81-2.7.879.879,0,0,0,.441-.383,5.629,5.629,0,0,1,3-3.047A.543.543,0,0,0-376.427,307.14Zm20.491,1.532c0,.684-.036,1.319.015,1.946a1.768,1.768,0,0,0,.33.925,6.642,6.642,0,0,0,3.637,2.31c.814.2,1.64.357,2.484.538,0,1.6.014,3.161,0,4.72a6.713,6.713,0,0,1-1.606,4.413,26.652,26.652,0,0,1-1.957,1.871,1.616,1.616,0,0,0,1.265,1.162c1.367.288,2.746.517,4.128.772-.005.018.016-.019.016-.055,0-3.931.1-7.865-.032-11.791a9.177,9.177,0,0,0-9-8.67,9.24,9.24,0,0,0-9.441,9.3c-.01,3.121,0,6.243,0,9.364v1.856c1.422-.264,2.824-.479,4.2-.81a2.623,2.623,0,0,0,1.067-.812c.261-.269.223-.53-.154-.783a6.8,6.8,0,0,1-3.074-4.568,27.187,27.187,0,0,1-.186-3.74c-.023-.745,0-1.491,0-2.242l1.985-.4a6.91,6.91,0,0,0,4.138-2.439,1.753,1.753,0,0,0,.329-.925c.05-.642.015-1.291.015-1.942Zm-1.9,38.808a.871.871,0,0,0,.046-.183c0-2.541.007-5.083,0-7.624a1.21,1.21,0,0,0-.151-.542c-1.8-3.356-3.605-6.705-5.4-10.063a.5.5,0,0,0-.635-.3,8.462,8.462,0,0,0-3.261,1.394,8.258,8.258,0,0,0-2.95,3.827c-.772,1.985-.476,4.044-.531,6.079h3.728a12.181,12.181,0,0,1,.971-5.791l1.673.564a2.578,2.578,0,0,1-.081.374,10.1,10.1,0,0,0,.305,8.285,6.753,6.753,0,0,1,.8,3.775.588.588,0,0,0,.051.2Zm14.825-7.394c0-1.233.042-2.425-.008-3.612a8.3,8.3,0,0,0-6.6-7.684.623.623,0,0,0-.809.373c-1.746,3.3-3.526,6.573-5.281,9.864a1.947,1.947,0,0,0-.215.869c-.017,2.349-.01,4.7-.01,7.046v.533h5.619c-.443-1.8.466-3.274,1.057-4.822.034-.09.07-.179.1-.27a8.762,8.762,0,0,0,.513-4.535c-.175-1-.449-1.977-.691-3.02l1.642-.553a12.487,12.487,0,0,1,.962,5.81Zm-31.406,7.4c0-1.952.01-3.837-.01-5.723a2.09,2.09,0,0,0-.233-.923q-2.547-4.786-5.127-9.554c-.087-.162-.193-.314-.281-.457a5.315,5.315,0,0,0-3.585,5.059c-.011,3.716,0,7.432,0,11.147,0,.147.023.294.035.431h1.828V337.367h1.85v10.114Zm40.675.023V337.361h1.837v10.1h1.829c0-4.012.071-7.982-.029-11.947a5.1,5.1,0,0,0-3.033-4.522c-.387-.2-.579-.147-.795.261-1.5,2.84-3,5.685-4.576,8.484a5.837,5.837,0,0,0-.815,3.277c.073,1.475.018,2.956.018,4.454a2.435,2.435,0,0,0,.268.035C-337.305,347.505-335.575,347.5-333.74,347.5Zm-23.089-34.521c-2.324,1.948-2.325,1.945-5.294,2.86a.466.466,0,0,0-.268.341,28.373,28.373,0,0,0,.118,3.683,5.478,5.478,0,0,0,5.195,4.508,5.23,5.23,0,0,0,5.558-4.051,31.055,31.055,0,0,0,.278-4.425A9.3,9.3,0,0,1-356.828,312.984Zm-14.07,3.488a4.783,4.783,0,0,1,2.9,3.518,1.829,1.829,0,0,0,.045-.213c.039-1.712.085-3.425.106-5.137a.946.946,0,0,0-.226-.559,4.39,4.39,0,0,0-3.4-1.709c-2.482-.037-4.965-.017-7.448-.01a.925.925,0,0,0-1.039,1.034c-.009,1.522-.024,3.044.011,4.566a5.312,5.312,0,0,0,.873,2.843c.02-.182.031-.252.035-.323a2.778,2.778,0,0,1,2.591-2.815c.419-.057.835-.151,1.256-.181a2.494,2.494,0,0,0,2.652-2.307h1.844Zm29.7-1.308a2.423,2.423,0,0,0,2.3,2.271c.591.078,1.182.161,1.771.246a2.809,2.809,0,0,1,2.418,2.374c.032.213.036.43.059.712a5.386,5.386,0,0,0-3.407-8.275,19,19,0,0,0-3.451-.123,5,5,0,0,0-3.143,1.134,2.354,2.354,0,0,0-1.15,2.376,16.95,16.95,0,0,1,.031,2.655q0,.675,0,1.351a5,5,0,0,1,2.946-3.414l-.2-1.305Zm-35.986,6.437c0,.328-.006.655,0,.982a3.714,3.714,0,0,0,3.365,3.637,3.609,3.609,0,0,0,3.91-2.935,12.6,12.6,0,0,0,.061-2.932,2.468,2.468,0,0,0-1.209-1.88,1.055,1.055,0,0,0-1.436-.005,4.851,4.851,0,0,1-1.674.708,12.451,12.451,0,0,1-1.651.254c-1.218.173-1.369.347-1.369,1.593C-377.187,321.217-377.187,321.409-377.185,321.6Zm40.688.048-.034,0v-.4c0-1.546-.095-1.654-1.612-1.835l-.229-.028a5.579,5.579,0,0,1-3.257-1.163c-.1-.088-.366-.048-.527.011a2.717,2.717,0,0,0-1.761,2.483c-.017.616-.013,1.233,0,1.849a3.712,3.712,0,0,0,3.34,3.66,3.675,3.675,0,0,0,3.957-2.963A13.265,13.265,0,0,0-336.5,321.65Zm-22.46,4.46a3.744,3.744,0,0,1-2.656,2.279c.59,1.1,1.153,2.16,1.744,3.21a.567.567,0,0,0,.429.176q2.594.018,5.188,0c.134,0,.337-.053.39-.148.594-1.064,1.166-2.14,1.76-3.243a3.775,3.775,0,0,1-2.669-2.275Zm-1.574-28.529a3.684,3.684,0,0,0,3.936,3.671c1.925-.129,3.62-1.976,3.353-3.671Zm-8.365,5.563h-7.341a3.671,3.671,0,0,0,3.639,3.664A3.675,3.675,0,0,0-368.9,303.144Zm24.087,0a3.649,3.649,0,0,0,3.783,3.667,3.615,3.615,0,0,0,3.513-3.667Zm-3.714,44.339h3.643v-5.521c-.663,0-1.294-.018-1.923.015a.555.555,0,0,0-.367.315c-.359.89-.638,1.816-1.044,2.683A5.2,5.2,0,0,0-348.524,347.478Zm-16.67.027a5.314,5.314,0,0,0-.312-2.538c-.4-.869-.689-1.791-1.039-2.685-.048-.122-.166-.3-.258-.308-.682-.026-1.365-.014-2.04-.014v5.513a2.165,2.165,0,0,0,.243.03C-367.486,347.506-366.373,347.505-365.194,347.505Zm26.958-49.311a15.531,15.531,0,0,1,1.8,2.1,14.926,14.926,0,0,1,.973,2.535,2.629,2.629,0,0,0,1.695-2.365,2.807,2.807,0,0,0-1.612-2.65A2.6,2.6,0,0,0-338.236,298.194Zm-2.918,49.285c0-2.061,0-4.08-.007-6.1a.533.533,0,0,0-.1-.26l-1.706,1.014v5.344Zm-31.334,0h1.743v-5.323l-1.743-1.071Zm3.022-46.229a3.479,3.479,0,0,0-3.383-1.819,3.57,3.57,0,0,0-2.867,1.819Zm9.457-5.573h6.3a3.587,3.587,0,0,0-3.148-1.8A3.594,3.594,0,0,0-360.009,295.674Zm21.973,5.571a3.553,3.553,0,0,0-3.527-1.809,3.654,3.654,0,0,0-2.746,1.809Zm-16.905,32.419h-3.833l1.915,3.561Zm9.288-9.773-.116.024c0,1.433-.011,2.867.021,4.3,0,.108.311.3.472.3.36-.014.714-.147,1.075-.2.33-.045.525-.181.557-.534s.324-.672-.132-1.02a5.06,5.06,0,0,1-1.706-2.488A3.9,3.9,0,0,0-345.654,323.891Zm-22.294-.021c-.117.062-.17.072-.177.1a5.928,5.928,0,0,1-1.952,2.936.447.447,0,0,0-.126.338c.069.818.2.957.989,1.123.263.055.526.112.79.162.3.057.479-.039.478-.384C-367.951,326.736-367.948,325.331-367.948,323.87Zm9.266-20.741a1.832,1.832,0,0,0,1.929,1.827,1.771,1.771,0,0,0,1.683-1.827Zm-15.7,5.559a1.822,1.822,0,0,0,1.861,1.819,1.782,1.782,0,0,0,1.755-1.819Zm35.056.009h-3.646a1.835,1.835,0,0,0,1.828,1.81A1.829,1.829,0,0,0-339.33,308.7Zm-.854,30.291c.326-.6.641-1.17.938-1.747a.587.587,0,0,0,.049-.378c-.282-1.119-.685-1.419-1.825-1.376a1.023,1.023,0,0,0-.2.043A4.652,4.652,0,0,0-340.184,338.988Zm-33.348.013a4.623,4.623,0,0,0,1.019-3.47c-1.278-.158-1.278-.158-1.831.954a.834.834,0,0,0-.123.258,1.093,1.093,0,0,0,.02.532C-374.171,337.843-373.858,338.394-373.532,339Zm28.694-29.793c-1.409.766-2.094,2.326-1.483,3.181l2.254-1.432c-.146-.263-.312-.52-.435-.8C-344.631,309.866-344.717,309.555-344.838,309.208Zm2.9,19.388c.2.134.339.233.482.329,1.232.823,1.216.8,2.485,0,.485-.306.49-.6.282-.931h-3.1Zm-30.011-.672a15.5,15.5,0,0,1-1.544.147c-.507,0-1.014-.092-1.553-.147l-.141.684c.493.331.946.657,1.424.941a.585.585,0,0,0,.5.028c.51-.3.992-.647,1.484-.977Zm4.692-15.8a2.655,2.655,0,0,0-1.625-2.849l-.62,1.524Zm7.383-6.786-.692-1.647a3,3,0,0,0-1.673,2.623Zm8.415.983a2.893,2.893,0,0,0-1.715-2.584l-.668,1.6Zm-20.219,26.415c-.88-.109-1.469-1.269-2.493-.47.361,1.388.362,1.356,1.717,1.38C-371.794,333.658-371.912,333.158-371.679,332.737Zm32.154-.571c-.314-.065-.636-.24-.87-.159a13.931,13.931,0,0,0-1.611.779c.177.424.132.889.806.864C-339.9,333.6-339.9,333.642-339.526,332.166Zm1.233-1.378,1.989,1,.754-1.419C-336.564,330.086-337.5,329.738-338.292,330.787Zm-39.12,1,1.981-1c-.784-1.062-1.726-.7-2.729-.411Zm41.6-20.559a3.724,3.724,0,0,0-1.646-2.045l-.487,1.37Zm-40.425-1.98-.185-.135-1.187,1.222.12.129h1.665Zm.547,25.737c.467-.767-.095-1.256-.174-1.905l-.667.352Zm38.508-1.578-.7-.309c-.041.642-.641,1.138-.142,1.879Zm-33.616-2.25.808-1.043c-.778-.244-1.1.33-1.655.632Zm27.109-1.052c.693,1.147.864,1.21,1.512.559C-342.662,330.452-342.974,329.845-343.686,330.108Z" transform="translate(385.503 -292.013)" fill="#7c7c7c"/>
          <path id="Path_7004" data-name="Path 7004" d="M-222.576,470.148l1.5-.755a2.127,2.127,0,0,0,1.861,1.252,2.062,2.062,0,0,0,1.907-1.263l1.518.758a3.616,3.616,0,0,1-3.363,2.275A3.632,3.632,0,0,1-222.576,470.148Z" transform="translate(248.402 -441.33)" fill="#7c7c7c"/>
        </g>
      </g>
    </g>
  </g>
</svg>
