<svg xmlns="http://www.w3.org/2000/svg" xmlns:xlink="http://www.w3.org/1999/xlink" width="80" height="72" viewBox="0 0 80 72">
  <defs>
    <clipPath id="clip-Artboard_3">
      <rect width="80" height="72"/>
    </clipPath>
  </defs>
  <g id="Artboard_3" data-name="Artboard – 3" clip-path="url(#clip-Artboard_3)">
    <g id="Group_5336" data-name="Group 5336" transform="translate(-14.67 -10.736)">
      <g id="Group_38" data-name="Group 38" transform="translate(32.67 18.736)">
        <g id="document-text-outline">
          <path id="Path_11" data-name="Path 11" d="M51.172,27.426V54.46a6.663,6.663,0,0,1-6.663,6.663h-31.1A6.663,6.663,0,0,1,6.75,54.46V10.038a6.663,6.663,0,0,1,6.663-6.663H27.121a4.442,4.442,0,0,1,3.139,1.3L49.869,24.285a4.442,4.442,0,0,1,1.3,3.139Z" transform="translate(-6.75 -3.375)" fill="none" stroke="#838383" stroke-linejoin="round" stroke-width="2"/>
          <path id="Path_12" data-name="Path 12" d="M18,3.938V19.477a4.143,4.143,0,0,0,4.143,4.143H37.682" transform="translate(5.705 -2.901)" fill="none" stroke="#838383" stroke-linecap="round" stroke-linejoin="round" stroke-width="2"/>
          <path id="Path_13" data-name="Path 13" d="M12.375,20.25H33.092" transform="translate(-0.523 13.067)" fill="none" stroke="#838383" stroke-linecap="round" stroke-linejoin="round" stroke-width="2"/>
          <path id="Path_14" data-name="Path 14" d="M12.375,25.875H33.092" transform="translate(-0.523 18.547)" fill="none" stroke="#838383" stroke-linecap="round" stroke-linejoin="round" stroke-width="2"/>
        </g>
      </g>
    </g>
  </g>
</svg>
